<?xml version="1.0" encoding="UTF-8"?>
<svg version="1.1" xmlns="http://www.w3.org/2000/svg" width="200" height="200">
<path d="M0 0 C66 0 132 0 200 0 C200 66 200 132 200 200 C134 200 68 200 0 200 C0 134 0 68 0 0 Z " fill="#08CCD9" transform="translate(0,0)"/>
<path d="M0 0 C66 0 132 0 200 0 C200 66 200 132 200 200 C134 200 68 200 0 200 C0 134 0 68 0 0 Z M49 35 C48.39978027 35.56170898 47.79956055 36.12341797 47.18115234 36.70214844 C24.30344993 58.34999843 6.79790497 84.66760144 5.77734375 116.91015625 C5.74020492 119.02332336 5.71026813 121.1366292 5.6875 123.25 C5.66977539 124.24346436 5.65205078 125.23692871 5.63378906 126.26049805 C5.64078274 133.28506145 6.89306448 139.32060859 9 146 C9.32742188 147.18851563 9.65484375 148.37703125 9.9921875 149.6015625 C11.70580226 155.47031395 13.67780192 160.4425998 16.83203125 165.6640625 C18.71401053 169.42802107 19.52300843 173.40416047 20.421875 177.49609375 C20.89230139 179.98004426 20.89230139 179.98004426 22 182 C22.66 182 23.32 182 24 182 C24 182.99 24 183.98 24 185 C31.08654167 192.55897778 42.25808491 193.78162104 52.07519531 194.09960938 C58.47904621 194.17901939 64.87596361 194.10448255 71.27783203 193.93408203 C74 194 74 194 76.88183594 194.50048828 C82.51152287 195.40233133 88.21077205 194.98164347 93.89257812 194.81298828 C96.09757072 194.75077392 98.3023365 194.70892054 100.5078125 194.66796875 C108.11362647 194.47947055 115.15856542 193.76205006 122.52001953 191.67724609 C125.47854031 190.8693177 128.31535947 190.57034154 131.375 190.4375 C135.56890136 190.16887102 139.07592781 189.60987577 143 188 C143.99 187.67 144.98 187.34 146 187 C146 186.34 146 185.68 146 185 C146.73210693 184.87850586 147.46421387 184.75701172 148.21850586 184.63183594 C152.70734066 183.61216557 156.51165856 181.38494461 160.5625 179.25 C161.83770508 178.60417969 161.83770508 178.60417969 163.13867188 177.9453125 C167.83350156 175.48558996 170.89049901 173.39570367 174 169 C175.60377149 167.57616385 177.2512366 166.20010683 178.9375 164.875 C179.77152344 164.21242187 180.60554687 163.54984375 181.46484375 162.8671875 C184 161 184 161 186.6328125 159.5 C190.70581464 156.91908775 192.64893013 153.58841605 194 149 C193.84757061 143.78691471 192.86241504 138.79163249 191.32421875 133.8125 C190.84430655 131.12961734 192.18034572 129.37345514 193.27734375 126.98046875 C194.92917546 122.45355698 194.81908958 118.11773161 193.0859375 113.63671875 C190.45821103 108.59317924 187.40502207 104.59593639 183 101 C179.78146065 100.0427196 179.78146065 100.0427196 177 100 C177.04640625 99.26394531 177.0928125 98.52789062 177.140625 97.76953125 C177.39108642 91.73489067 177.39108642 91.73489067 175.625 86.0625 C168.68155386 80.60693518 160.94225334 79.42522397 152.35839844 78.85864258 C150.34375 78.6875 150.34375 78.6875 147 78 C144.29030324 74.59437019 144.42028865 70.20288649 144 66 C145.175625 65.773125 146.35125 65.54625 147.5625 65.3125 C152.11866146 64.29191983 156.55531937 62.98198317 161 61.5625 C161.6710376 61.35729736 162.3420752 61.15209473 163.03344727 60.94067383 C165.15860482 60.27520497 165.15860482 60.27520497 168 59 C168.33 58.01 168.66 57.02 169 56 C172.5625 54.8125 172.5625 54.8125 176 54 C176 53.34 176 52.68 176 52 C176.556875 51.79375 177.11375 51.5875 177.6875 51.375 C181.63463433 49.02805526 184.23309615 46.10146692 185.796875 41.81640625 C187.29915243 35.79714599 187.35192706 31.41415546 184.25 25.875 C179.55990478 19.88210056 174.09895411 17.36212986 167 15 C166.34 15 165.68 15 165 15 C164.67 14.34 164.34 13.68 164 13 C162.05979457 12.35814835 162.05979457 12.35814835 159.6875 11.96484375 C158.78539795 11.7956543 157.8832959 11.62646484 156.95385742 11.45214844 C155.97908447 11.28231445 155.00431152 11.11248047 154 10.9375 C153.00266846 10.7612207 152.00533691 10.58494141 150.9777832 10.40332031 C142.30395014 8.93513131 133.78422804 8.20140575 125 8 C124.30600098 7.97421875 123.61200195 7.9484375 122.89697266 7.921875 C94.61368234 6.88324143 69.7545186 15.55790784 49 35 Z " fill="#FEFEFE" transform="translate(0,0)"/>
</svg>
